<svg width="62" height="60" viewBox="0 0 62 60" fill="none" xmlns="http://www.w3.org/2000/svg">
<rect y="17" width="62" height="25" rx="12.5" fill="#142850"/>
<path d="M19.7734 36H10.7471V33.8555L14.8516 29.6104C15.1973 29.2295 15.4756 28.8867 15.6865 28.582C15.9033 28.2715 16.0586 27.9932 16.1523 27.7471C16.252 27.4951 16.3018 27.2725 16.3018 27.0791C16.3018 26.5635 16.1934 26.1826 15.9766 25.9365C15.7598 25.6904 15.4463 25.5674 15.0361 25.5674C14.7549 25.5674 14.5117 25.6494 14.3066 25.8135C14.1016 25.9775 13.9404 26.1973 13.8232 26.4727C13.7119 26.748 13.6562 27.0586 13.6562 27.4043H10.4834C10.4834 26.6016 10.6768 25.8691 11.0635 25.207C11.4561 24.5391 11.998 24.0088 12.6895 23.6162C13.3867 23.2178 14.1953 23.0186 15.1152 23.0186C16.5566 23.0186 17.6436 23.3496 18.376 24.0117C19.1143 24.668 19.4834 25.5938 19.4834 26.7891C19.4834 27.4043 19.3604 27.9814 19.1143 28.5205C18.8682 29.0537 18.5137 29.5986 18.0508 30.1553C17.5879 30.7061 17.0283 31.3154 16.3721 31.9834L14.9043 33.4512H19.7734V36ZM30.2324 30.8057C30.2324 32.0186 30.0391 33.0234 29.6523 33.8203C29.2715 34.6113 28.7412 35.2031 28.0615 35.5957C27.3877 35.9824 26.6113 36.1758 25.7324 36.1758C24.8477 36.1758 24.0625 35.9824 23.377 35.5957C22.6973 35.2031 22.1641 34.6113 21.7773 33.8203C21.3965 33.0234 21.2061 32.0186 21.2061 30.8057V28.4062C21.2061 27.1934 21.3965 26.1914 21.7773 25.4004C22.1582 24.6035 22.6885 24.0088 23.3682 23.6162C24.0479 23.2236 24.8301 23.0273 25.7148 23.0273C26.5938 23.0273 27.373 23.2236 28.0527 23.6162C28.7324 24.0088 29.2656 24.6035 29.6523 25.4004C30.0391 26.1914 30.2324 27.1934 30.2324 28.4062V30.8057ZM27.0596 27.9932C27.0596 27.3779 27.0039 26.8975 26.8926 26.5518C26.7812 26.2002 26.626 25.9512 26.4268 25.8047C26.2275 25.6582 25.9902 25.585 25.7148 25.585C25.4395 25.585 25.1992 25.6582 24.9941 25.8047C24.7949 25.9512 24.6396 26.2002 24.5283 26.5518C24.4229 26.8975 24.3701 27.3779 24.3701 27.9932V31.21C24.3701 31.8369 24.4258 32.3262 24.5371 32.6777C24.6484 33.0293 24.8037 33.2754 25.0029 33.416C25.208 33.5566 25.4512 33.627 25.7324 33.627C26.002 33.627 26.2363 33.5566 26.4355 33.416C26.6348 33.2754 26.7871 33.0293 26.8926 32.6777C27.0039 32.3262 27.0596 31.8369 27.0596 31.21V27.9932ZM40.7266 36H31.7002V33.8555L35.8047 29.6104C36.1504 29.2295 36.4287 28.8867 36.6396 28.582C36.8564 28.2715 37.0117 27.9932 37.1055 27.7471C37.2051 27.4951 37.2549 27.2725 37.2549 27.0791C37.2549 26.5635 37.1465 26.1826 36.9297 25.9365C36.7129 25.6904 36.3994 25.5674 35.9893 25.5674C35.708 25.5674 35.4648 25.6494 35.2598 25.8135C35.0547 25.9775 34.8936 26.1973 34.7764 26.4727C34.665 26.748 34.6094 27.0586 34.6094 27.4043H31.4365C31.4365 26.6016 31.6299 25.8691 32.0166 25.207C32.4092 24.5391 32.9512 24.0088 33.6426 23.6162C34.3398 23.2178 35.1484 23.0186 36.0684 23.0186C37.5098 23.0186 38.5967 23.3496 39.3291 24.0117C40.0674 24.668 40.4365 25.5938 40.4365 26.7891C40.4365 27.4043 40.3135 27.9814 40.0674 28.5205C39.8213 29.0537 39.4668 29.5986 39.0039 30.1553C38.541 30.7061 37.9814 31.3154 37.3252 31.9834L35.8574 33.4512H40.7266V36ZM42.2998 29.7949L43.0908 23.2031H50.6846V25.752H45.6748L45.4023 27.9756C45.5371 27.9053 45.7656 27.8174 46.0879 27.7119C46.416 27.6006 46.7764 27.5449 47.1689 27.5449C48.0244 27.5449 48.7451 27.7119 49.3311 28.0459C49.9229 28.3799 50.3711 28.8691 50.6758 29.5137C50.9863 30.1582 51.1416 30.9434 51.1416 31.8691C51.1416 32.584 50.9775 33.2725 50.6494 33.9346C50.3271 34.5908 49.832 35.1299 49.1641 35.5518C48.502 35.9678 47.6582 36.1758 46.6328 36.1758C46.0527 36.1758 45.4873 36.085 44.9365 35.9033C44.3916 35.7217 43.8994 35.4609 43.46 35.1211C43.0264 34.7812 42.6836 34.374 42.4316 33.8994C42.1797 33.4189 42.0596 32.8857 42.0713 32.2998H45.2529C45.2705 32.6924 45.4023 33.0117 45.6484 33.2578C45.8945 33.5039 46.2139 33.627 46.6064 33.627C46.9756 33.627 47.2568 33.5303 47.4502 33.3369C47.6494 33.1436 47.7842 32.8945 47.8545 32.5898C47.9307 32.2793 47.9688 31.9541 47.9688 31.6143C47.9688 31.2275 47.9102 30.8994 47.793 30.6299C47.6816 30.3545 47.5 30.1465 47.248 30.0059C47.002 29.8594 46.6738 29.7861 46.2637 29.7861C45.8535 29.7861 45.5342 29.8594 45.3057 30.0059C45.0771 30.1523 44.916 30.2871 44.8223 30.4102L42.2998 29.7949Z" fill="white"/>
</svg>
