<svg width="62" height="60" viewBox="0 0 62 60" fill="none" xmlns="http://www.w3.org/2000/svg">
<rect y="18" width="62" height="25" rx="12.5" fill="#142850"/>
<path d="M20.7734 36H11.7471V33.8555L15.8516 29.6104C16.1973 29.2295 16.4756 28.8867 16.6865 28.582C16.9033 28.2715 17.0586 27.9932 17.1523 27.7471C17.252 27.4951 17.3018 27.2725 17.3018 27.0791C17.3018 26.5635 17.1934 26.1826 16.9766 25.9365C16.7598 25.6904 16.4463 25.5674 16.0361 25.5674C15.7549 25.5674 15.5117 25.6494 15.3066 25.8135C15.1016 25.9775 14.9404 26.1973 14.8232 26.4727C14.7119 26.748 14.6562 27.0586 14.6562 27.4043H11.4834C11.4834 26.6016 11.6768 25.8691 12.0635 25.207C12.4561 24.5391 12.998 24.0088 13.6895 23.6162C14.3867 23.2178 15.1953 23.0186 16.1152 23.0186C17.5566 23.0186 18.6436 23.3496 19.376 24.0117C20.1143 24.668 20.4834 25.5938 20.4834 26.7891C20.4834 27.4043 20.3604 27.9814 20.1143 28.5205C19.8682 29.0537 19.5137 29.5986 19.0508 30.1553C18.5879 30.7061 18.0283 31.3154 17.3721 31.9834L15.9043 33.4512H20.7734V36ZM31.2324 30.8057C31.2324 32.0186 31.0391 33.0234 30.6523 33.8203C30.2715 34.6113 29.7412 35.2031 29.0615 35.5957C28.3877 35.9824 27.6113 36.1758 26.7324 36.1758C25.8477 36.1758 25.0625 35.9824 24.377 35.5957C23.6973 35.2031 23.1641 34.6113 22.7773 33.8203C22.3965 33.0234 22.2061 32.0186 22.2061 30.8057V28.4062C22.2061 27.1934 22.3965 26.1914 22.7773 25.4004C23.1582 24.6035 23.6885 24.0088 24.3682 23.6162C25.0479 23.2236 25.8301 23.0273 26.7148 23.0273C27.5938 23.0273 28.373 23.2236 29.0527 23.6162C29.7324 24.0088 30.2656 24.6035 30.6523 25.4004C31.0391 26.1914 31.2324 27.1934 31.2324 28.4062V30.8057ZM28.0596 27.9932C28.0596 27.3779 28.0039 26.8975 27.8926 26.5518C27.7812 26.2002 27.626 25.9512 27.4268 25.8047C27.2275 25.6582 26.9902 25.585 26.7148 25.585C26.4395 25.585 26.1992 25.6582 25.9941 25.8047C25.7949 25.9512 25.6396 26.2002 25.5283 26.5518C25.4229 26.8975 25.3701 27.3779 25.3701 27.9932V31.21C25.3701 31.8369 25.4258 32.3262 25.5371 32.6777C25.6484 33.0293 25.8037 33.2754 26.0029 33.416C26.208 33.5566 26.4512 33.627 26.7324 33.627C27.002 33.627 27.2363 33.5566 27.4355 33.416C27.6348 33.2754 27.7871 33.0293 27.8926 32.6777C28.0039 32.3262 28.0596 31.8369 28.0596 31.21V27.9932ZM41.7266 36H32.7002V33.8555L36.8047 29.6104C37.1504 29.2295 37.4287 28.8867 37.6396 28.582C37.8564 28.2715 38.0117 27.9932 38.1055 27.7471C38.2051 27.4951 38.2549 27.2725 38.2549 27.0791C38.2549 26.5635 38.1465 26.1826 37.9297 25.9365C37.7129 25.6904 37.3994 25.5674 36.9893 25.5674C36.708 25.5674 36.4648 25.6494 36.2598 25.8135C36.0547 25.9775 35.8936 26.1973 35.7764 26.4727C35.665 26.748 35.6094 27.0586 35.6094 27.4043H32.4365C32.4365 26.6016 32.6299 25.8691 33.0166 25.207C33.4092 24.5391 33.9512 24.0088 34.6426 23.6162C35.3398 23.2178 36.1484 23.0186 37.0684 23.0186C38.5098 23.0186 39.5967 23.3496 40.3291 24.0117C41.0674 24.668 41.4365 25.5938 41.4365 26.7891C41.4365 27.4043 41.3135 27.9814 41.0674 28.5205C40.8213 29.0537 40.4668 29.5986 40.0039 30.1553C39.541 30.7061 38.9814 31.3154 38.3252 31.9834L36.8574 33.4512H41.7266V36ZM52.3613 33.3721H43.124L42.9307 31.3242L47.9932 23.2031H50.4893L47.8262 27.7646L45.9277 30.8232H52.3613V33.3721ZM51.1396 36H47.9756V23.2031H51.1396V36Z" fill="white"/>
</svg>
